<?xml version="1.0" encoding="UTF-8"?>
<svg version="1.1" viewBox="0 0 2048 803" width="905" height="355" xmlns="http://www.w3.org/2000/svg">
<path transform="translate(283,24)" d="m0 0h38l26 3 27 6 26 8 20 8 17 8 15 9 17 12 10 8 12 11 5 4 7 8 13 16 14 21 8 14 7 15 8 22 6 24 3 19 1 9v39l-4 28-5 22-9 27-9 20-9 17-10 15-14 24-6 15-4 14-2 17v28l3 24 7 30 9 26 11 26-4 4-27 9-38 16-37 17-23 11-27 14-44 24-22 13-19 12-23 14-23 16-12 7h-6l-3-3v-18l2-26v-31l-3-25-4-22-7-26-6-17-8 1-21 4-21 2h-19l-16-3-11-5-9-6-8-9-5-10-3-15 1-17 2-10v-10l-2-6-11-16-3-7 1-7 2-5-1-5-6-5-4-8v-14l5-21v-2l-17-4-14-7-7-7-5-12-1-11 4-16 10-22 13-22 9-15 11-21 5-14 1-11-5-15-1-4v-25l4-23 5-19 7-20 12-25 11-18 11-14 11-13 16-16 11-9 16-11 21-12 20-9 29-9 23-5zm2 30-24 3-22 5-20 6-23 10-16 9-16 12-13 11-12 12-10 13-9 13-8 14-7 15-9 27-4 17-1 7v21l5 14 1 6v15l-3 12-11 25-15 27-11 19-8 15-4 12 1 4 5 5 3 2 16 4 10 5 5 6 2 6v13l-4 14v10l3 5 11 6 5 6 1 5-10 15 1 4 6 9 4 10 1 4v22l-2 13 1 10 4 6 7 6 13 4 14 1 23-2 27-5 35-10 20-7 19-9 16-9 15-10 9-7-1 7-6 11-7 11-14 14-10 7-18 10-16 7-10 4 10 35 7 34 4 36 1 23 11-7 14-9 17-10 18-11 21-12 26-14 18-10 16-8 37-18 25-11 28-12 5-2-10-30-5-21-4-23-2-20v-26l3-22 5-19 8-18 9-16 10-16 10-18 10-21 7-19 6-24 4-27 1-8v-17l-3-28-5-21-10-28-8-16-11-18-7-9-11-13-14-14-10-8-13-10-15-9-15-8-25-10-24-7-28-5-22-2z" fill="#FEFEFE"/>
<path transform="translate(691,199)" d="m0 0h34l10 19 8 17 10 19 9 17 11 23 12 23 7 15 2-2 11-23 10-21 8-16 18-35 13-27 4-8 3-1 45 1v279h-50v-178l-18 37-11 23-31 62-3 3-4-2-6-9-9-17-10-21-10-19-11-23-8-17-9-18v179h-51v-279z" fill="#FEFEFE"/>
<path transform="translate(1171,199)" d="m0 0 4 2 13 26 11 23 23 47 8 16 17 37 7 14v-164l2-1 48 1v279h-46l-14-28-11-23-20-41-16-34-13-28-6-13-1 167h-49l-1-1v-278z" fill="#FEFEFE"/>
<path transform="translate(410,131)" d="m0 0h9l11 3 9 5 7 6 7 11 4 13v13l-3 11-6 10-9 8-12 6-9 2h-8l-12-3-5-3-4 1-17 17-8 7-12 11-1 2 5 10 1 3v13l-3 10 1 4 6 5 34 34 7-1 12-3h8l12 3 9 5 7 6 7 10 4 11 1 5v10l-3 12-6 10-9 8-10 5-10 2h-11l-9-2-11-6-9-8-7-12-2-8v-13l3-11 1-4-11-9-12-11-10-9-8-9-7 1-16 3-11-1-8-1-12 13-11 12-7 8-12 13-2 1 2 5 5 10 1 3v18l-4 11-6 9-8 8-10 5-8 2h-12l-11-3-10-6-9-9-6-13-1-4v-19l5-12 6-8 8-7 9-5 4-1h21l3 1 10-11 7-8 9-10 12-14 7-8-3-9-3-12v-7l3-11v-4l-12-9-14-11-5-4-4 2-10 7-8 3-11 1-11-2-10-5-8-6-8-11-4-12v-17l5-14 8-10 10-7 12-4h14l10 3 10 6 9 9 5 10 2 7 1 15 13 10 13 11 11 9 5-2 9-3h15l9 3 5-1 10-9 17-16 8-7 4-4-2-13v-13l4-11 5-8 5-5 6-5 10-5zm4 26-8 2-7 6-2 6v7l3 7 6 5 4 2h8l8-4 4-5 1-3v-11l-3-6-7-5zm-207 21-7 3-5 5-2 7 1 8 4 6 6 5 2 1h8l6-3 6-7 2-5-1-8-4-7-6-4zm103 76-8 4-4 5-1 2v11l4 7 5 4 4 1h8l7-4 4-5 2-10-3-8-6-5-6-2zm104 99-8 4-4 6-1 4v8l4 7 6 4 3 1h9l8-4 4-5 1-3v-10l-3-6-6-5-3-1zm-201 17-8 4-3 4-2 7 1 10 5 6 6 3 7 1 9-3 5-6 1-4v-11l-4-6-5-4-2-1z" fill="#FEFEFE"/>
<path transform="translate(1564,199)" d="m0 0h66l3 7 7 31 9 37 9 38 10 41 17 71 12 50v5h-53l-4-15-7-32-2-13h-69l-3 15-11 45h-50l1-8 11-49 14-59 7-30 17-74 9-36 5-22zm32 65-5 23-9 42-10 45 1 1 48-1-2-11-14-65-6-29-2-5z" fill="#FEFEFE"/>
<path transform="translate(1084,199)" d="m0 0 2 1v46l-81 1-1 68h72l1 43-72 1-1 76h82v44h-133v-279z" fill="#FEFEFE"/>
<path transform="translate(1338,200)" d="m0 0h164v46h-55v233h-54l-1-1v-231l-54-1-1-3v-40z" fill="#FEFEFE"/>
<path transform="translate(1684,200)" d="m0 0h166l1 2v43l-1 1h-57v233h-50v-233h-59l-1-4v-41z" fill="#FEFEFE"/>
<path transform="translate(1724,563)" d="m0 0h14l7 10 10 16 11 16v-41l1-1h14v72l-12 1-5-5-10-17-9-14-6-11-1 46-1 1h-13z" fill="#FEFEFE"/>
<path transform="translate(1111,562)" d="m0 0h14l9 3 10 9 2 4-7 5-6 1-10-6-8-1-8 3-5 6-3 9v10l4 9 5 5 3 2 11 1 7-2 4-5 1-6-15-1-1-2v-11h30l1 4v20l-4 7-9 8-8 3-12 1-12-3-10-6-5-6-5-12-1-4v-16l3-10 5-8 7-6 9-4z" fill="#FEFEFE"/>
<path transform="translate(811,563)" d="m0 0h30l10 2 8 6 3 6 1 5-1 13-5 8-6 4 2 6 10 15 5 7-2 1h-16l-7-10-9-15-9-1v25l-14 1-1-1v-71zm14 14v20h14l7-4 2-3v-7l-4-5-4-1z" fill="#FEFEFE"/>
<path transform="translate(691,562)" d="m0 0h15l8 3 9 8 1 6-4 3-7 2-8-6-2-1h-11l-3 3v5l3 3 20 6 9 5 5 8 1 11-3 8-5 6-10 5-6 1h-9l-10-3-8-6-6-8 1-4 7-4 5 1 8 7 4 1h10l5-5v-5l-10-4-18-6-8-8-2-5v-9l3-8 5-5 4-3z" fill="#FEFEFE"/>
<path transform="translate(1368,562)" d="m0 0h15l10 4 7 6 2 5-5 5-4 2-5-1-1-3-5-2-4-2h-6l-6 4v5l3 3 21 7 6 3 6 7 2 5v9l-3 8-4 5-12 5h-18l-8-3-10-9-2-5 1-4 10-5 5 5 6 5 4 1h8l6-3 1-6-7-4-21-7-7-6-4-9 1-11 4-6 7-6z" fill="#FEFEFE"/>
<path transform="translate(1020,563)" d="m0 0h48l1 2-1 12h-34v16l23-1 7 1 1 1v10l-2 2h-29v16h35l1 13-1 1h-49l-1-1-1-70z" fill="#FEFEFE"/>
<path transform="translate(1436,562)" d="m0 0h16l10 5 6 7 1 4-4 4-7 2-8-6-5-2-10 2-2 3 1 4 3 3 22 7 6 4 5 6 2 5v8l-4 10-7 6-13 4h-7l-12-3-10-7-4-8 2-4 6-3 5 1 8 7 5 1h9l4-2 1-7-3-3-20-6-10-6-4-6-1-10 4-11 9-7z" fill="#FEFEFE"/>
<path transform="translate(1540,562)" d="m0 0h13l10 4 8 7 2 6-6 4-7 1-5-6-9-2-8 3-1 5 5 5 18 5 8 5 5 6 2 6v8l-5 10-8 6-10 3h-9l-10-3-8-5-5-6-2-3 1-4 8-4 4 1 8 7 8 2 11-2v-8l-6-4-15-4-8-5-5-5-3-5v-11l4-8 7-6z" fill="#FEFEFE"/>
<path transform="translate(903,563)" d="m0 0h15l3 5 8 21 17 44v3h-16l-4-9-3-9-24 1-6 15-2 2h-15l-1-2 8-19 10-26 7-19zm7 20-7 21h15l-1-5-4-13z" fill="#FEFEFE"/>
<path transform="translate(1669,563)" d="m0 0h14l4 8 14 37 10 26v2h-14l-4-1-5-14v-3l-25 1-5 16-2 1h-11l-4-1 3-9 10-27 10-26zm6 22-4 10-3 9h15l-6-18z" fill="#FEFEFE"/>
<path transform="translate(1297,563)" d="m0 0h15l3 4 12 34 11 28 2 6-16 1-3-5-4-12h-26l-3 11-3 6-16-1 11-29 9-23 7-19zm7 20-7 19v2l15 1-1-6-5-15z" fill="#FEFEFE"/>
<path transform="translate(1161,563)" d="m0 0h14l6 9 9 17v2l3-3 12-23 2-2h16l-2 6-21 36-1 5v25l-1 1h-14l-1-7-1-24-12-20-10-19z" fill="#FEFEFE"/>
<path transform="translate(1586,563)" d="m0 0h54v14h-19v59h-15l-1-1v-58h-19z" fill="#FEFEFE"/>
<path transform="translate(739,563)" d="m0 0h47l8 1v13h-20v58l-2 1h-13l-1-1v-47l1-11-19 1-1-1z" fill="#FEFEFE"/>
<path transform="translate(1796,563)" d="m0 0h55v13l-1 1-19 1 1 57-1 1h-14l-1-1v-58l-20 1-1-1v-8z" fill="#FEFEFE"/>
<path transform="translate(951,563)" d="m0 0h53l1 1v13l-21 1 1 57h-16v-58h-19v-13z" fill="#FEFEFE"/>
<path transform="translate(1489,563)" d="m0 0h13l1 1v71l-14 1-1-1v-71z" fill="#FEFEFE"/>
</svg>
